# This file uses centimeters as units for non-parametric coordinates.

mtllib CubeFace.mtl
g default
v 0.000000  0.500000 0.000000
v 0.000000 -0.500000 0.000000
v 1.000000 -0.500000 0.000000
v 1.000000  0.500000 0.000000
vt 0.000000 0.000000
vt 0.000000 1.000000
vt 1.000000 1.000000
vt 1.000000 0.000000
vn 0.000000 0.000000 1.000000
vn 0.000000 0.000000 1.000000
vn 0.000000 0.000000 1.000000
vn 0.000000 0.000000 1.000000
s 1
g pCube1
usemtl initialShadingGroup
f 1/1/1 2/2/2 3/3/3
f 1/1/1 3/3/4 4/4/2
